<svg width="584" height="100" viewBox="0 0 584 100" fill="none" xmlns="http://www.w3.org/2000/svg">
<path d="M50.4268 99.9268L99.9242 50.4293L50.4268 0.931815L0.929289 50.4293L50.4268 99.9268Z" fill="white"/>
<path d="M88.888 55V8.28H94.648V19.8V26.52H95.864L94.648 27.864C94.648 25.0907 95.48 22.9573 97.144 21.464C98.808 19.928 101.112 19.16 104.056 19.16C107.597 19.16 110.413 20.248 112.504 22.424C114.595 24.6 115.64 27.5653 115.64 31.32V55H109.88V31.96C109.88 29.4427 109.197 27.5013 107.832 26.136C106.509 24.728 104.696 24.024 102.392 24.024C100.003 24.024 98.104 24.7707 96.696 26.264C95.3307 27.7573 94.648 29.8693 94.648 32.6V55H88.888ZM140.511 55.64C136.458 55.64 133.215 54.4453 130.783 52.056C128.351 49.624 127.135 46.3387 127.135 42.2V19.8H132.895V42.2C132.895 44.8453 133.578 46.9147 134.943 48.408C136.308 49.8587 138.164 50.584 140.511 50.584C142.9 50.584 144.778 49.8587 146.143 48.408C147.551 46.9147 148.255 44.8453 148.255 42.2V19.8H154.015V42.2C154.015 46.3387 152.778 49.624 150.303 52.056C147.828 54.4453 144.564 55.64 140.511 55.64ZM163.974 55V19.8H169.03V24.024H170.182L169.286 25.56C169.286 23.5973 169.798 22.04 170.822 20.888C171.889 19.736 173.318 19.16 175.11 19.16C177.073 19.16 178.587 19.8853 179.654 21.336C180.721 22.7867 181.254 24.8347 181.254 27.48L179.526 24.024H182.214L180.998 25.56C180.998 23.5973 181.531 22.04 182.598 20.888C183.707 19.736 185.158 19.16 186.95 19.16C189.169 19.16 190.875 19.992 192.07 21.656C193.307 23.32 193.926 25.5173 193.926 28.248V55H188.614V28.184C188.614 26.7333 188.294 25.6027 187.654 24.792C187.057 23.9813 186.161 23.576 184.966 23.576C183.814 23.576 182.897 23.9813 182.214 24.792C181.574 25.56 181.254 26.6693 181.254 28.12V55H176.646V28.184C176.646 26.6907 176.305 25.56 175.622 24.792C174.982 23.9813 174.065 23.576 172.87 23.576C171.675 23.576 170.779 23.9813 170.182 24.792C169.585 25.56 169.286 26.6693 169.286 28.12V55H163.974ZM214.253 55.64C210.541 55.64 207.618 54.7013 205.485 52.824C203.352 50.904 202.285 48.3227 202.285 45.08C202.285 41.7947 203.352 39.2133 205.485 37.336C207.618 35.4587 210.498 34.52 214.125 34.52H225.005V31C225.005 28.824 224.344 27.16 223.021 26.008C221.741 24.8133 219.906 24.216 217.517 24.216C215.426 24.216 213.677 24.664 212.269 25.56C210.861 26.4133 210.05 27.5867 209.837 29.08H204.077C204.461 26.0507 205.89 23.64 208.365 21.848C210.84 20.056 213.933 19.16 217.645 19.16C221.698 19.16 224.898 20.2053 227.245 22.296C229.592 24.3867 230.765 27.224 230.765 30.808V55H225.133V48.28H224.173L225.133 47.32C225.133 49.88 224.13 51.9067 222.125 53.4C220.162 54.8933 217.538 55.64 214.253 55.64ZM215.661 51.096C218.392 51.096 220.632 50.4133 222.381 49.048C224.13 47.6827 225.005 45.9333 225.005 43.8V38.808H214.253C212.333 38.808 210.818 39.3413 209.709 40.408C208.6 41.4747 208.045 42.9253 208.045 44.76C208.045 46.7227 208.706 48.28 210.029 49.432C211.394 50.5413 213.272 51.096 215.661 51.096ZM242.388 55V19.8H248.148V26.52H249.364L248.148 27.864C248.148 25.0907 248.98 22.9573 250.644 21.464C252.308 19.928 254.612 19.16 257.556 19.16C261.097 19.16 263.913 20.248 266.004 22.424C268.095 24.6 269.14 27.5653 269.14 31.32V55H263.38V31.96C263.38 29.4427 262.697 27.5227 261.332 26.2C260.009 24.8347 258.196 24.152 255.892 24.152C253.503 24.152 251.604 24.8773 250.196 26.328C248.831 27.7787 248.148 29.8693 248.148 32.6V55H242.388ZM278.715 61.4V56.6H309.435V61.4H278.715ZM329.378 55.64C325.666 55.64 322.743 54.7013 320.61 52.824C318.477 50.904 317.41 48.3227 317.41 45.08C317.41 41.7947 318.477 39.2133 320.61 37.336C322.743 35.4587 325.623 34.52 329.25 34.52H340.13V31C340.13 28.824 339.469 27.16 338.146 26.008C336.866 24.8133 335.031 24.216 332.642 24.216C330.551 24.216 328.802 24.664 327.394 25.56C325.986 26.4133 325.175 27.5867 324.962 29.08H319.202C319.586 26.0507 321.015 23.64 323.49 21.848C325.965 20.056 329.058 19.16 332.77 19.16C336.823 19.16 340.023 20.2053 342.37 22.296C344.717 24.3867 345.89 27.224 345.89 30.808V55H340.258V48.28H339.298L340.258 47.32C340.258 49.88 339.255 51.9067 337.25 53.4C335.287 54.8933 332.663 55.64 329.378 55.64ZM330.786 51.096C333.517 51.096 335.757 50.4133 337.506 49.048C339.255 47.6827 340.13 45.9333 340.13 43.8V38.808H329.378C327.458 38.808 325.943 39.3413 324.834 40.408C323.725 41.4747 323.17 42.9253 323.17 44.76C323.17 46.7227 323.831 48.28 325.154 49.432C326.519 50.5413 328.397 51.096 330.786 51.096ZM371.081 55.64C368.265 55.64 365.79 55.1067 363.657 54.04C361.566 52.9733 359.945 51.4373 358.793 49.432C357.641 47.384 357.065 44.9733 357.065 42.2V32.6C357.065 29.784 357.641 27.3733 358.793 25.368C359.945 23.3627 361.566 21.8267 363.657 20.76C365.79 19.6933 368.265 19.16 371.081 19.16C375.134 19.16 378.398 20.248 380.873 22.424C383.348 24.6 384.649 27.5653 384.777 31.32H379.017C378.889 29.0587 378.121 27.3307 376.713 26.136C375.348 24.8987 373.47 24.28 371.081 24.28C368.564 24.28 366.558 25.0053 365.065 26.456C363.572 27.864 362.825 29.8907 362.825 32.536V42.2C362.825 44.8453 363.572 46.8933 365.065 48.344C366.558 49.7947 368.564 50.52 371.081 50.52C373.47 50.52 375.348 49.9013 376.713 48.664C378.121 47.4267 378.889 45.6987 379.017 43.48H384.777C384.649 47.2347 383.348 50.2 380.873 52.376C378.398 54.552 375.134 55.64 371.081 55.64ZM413.04 55C410.011 55 407.643 54.1893 405.936 52.568C404.272 50.9467 403.44 48.664 403.44 45.72V25.048H393.52V19.8H403.44V9.88H409.2V19.8H423.28V25.048H409.2V45.72C409.2 48.408 410.48 49.752 413.04 49.752H422.64V55H413.04ZM433.815 55V49.752H446.295V25.048H435.415V19.8H452.055V49.752H463.895V55H433.815ZM448.535 13.464C447.127 13.464 446.018 13.1013 445.207 12.376C444.396 11.6507 443.991 10.6693 443.991 9.432C443.991 8.152 444.396 7.14933 445.207 6.424C446.018 5.656 447.127 5.272 448.535 5.272C449.943 5.272 451.052 5.656 451.863 6.424C452.674 7.14933 453.079 8.152 453.079 9.432C453.079 10.6693 452.674 11.6507 451.863 12.376C451.052 13.1013 449.943 13.464 448.535 13.464ZM485.95 55.512C483.134 55.512 480.702 54.9787 478.654 53.912C476.606 52.8453 475.006 51.3093 473.854 49.304C472.745 47.256 472.19 44.8453 472.19 42.072V32.728C472.19 29.912 472.745 27.5013 473.854 25.496C475.006 23.4907 476.606 21.9547 478.654 20.888C480.702 19.8213 483.134 19.288 485.95 19.288C488.766 19.288 491.198 19.8213 493.246 20.888C495.294 21.9547 496.873 23.4907 497.982 25.496C499.134 27.5013 499.71 29.8907 499.71 32.664V42.072C499.71 44.8453 499.134 47.256 497.982 49.304C496.873 51.3093 495.294 52.8453 493.246 53.912C491.198 54.9787 488.766 55.512 485.95 55.512ZM485.95 50.392C488.467 50.392 490.43 49.688 491.838 48.28C493.246 46.872 493.95 44.8027 493.95 42.072V32.728C493.95 29.9973 493.246 27.928 491.838 26.52C490.43 25.112 488.467 24.408 485.95 24.408C483.475 24.408 481.513 25.112 480.062 26.52C478.654 27.928 477.95 29.9973 477.95 32.728V42.072C477.95 44.8027 478.654 46.872 480.062 48.28C481.513 49.688 483.475 50.392 485.95 50.392ZM511.013 55V19.8H516.773V26.52H517.989L516.773 27.864C516.773 25.0907 517.605 22.9573 519.269 21.464C520.933 19.928 523.237 19.16 526.181 19.16C529.722 19.16 532.538 20.248 534.629 22.424C536.72 24.6 537.765 27.5653 537.765 31.32V55H532.005V31.96C532.005 29.4427 531.322 27.5227 529.957 26.2C528.634 24.8347 526.821 24.152 524.517 24.152C522.128 24.152 520.229 24.8773 518.821 26.328C517.456 27.7787 516.773 29.8693 516.773 32.6V55H511.013ZM561.612 55.512C559.223 55.512 557.132 55.1493 555.34 54.424C553.591 53.656 552.183 52.5893 551.116 51.224C550.092 49.8587 549.473 48.2373 549.26 46.36H555.02C555.276 47.5973 555.959 48.5787 557.068 49.304C558.22 50.0293 559.735 50.392 561.612 50.392H564.3C566.561 50.392 568.247 49.944 569.356 49.048C570.465 48.1093 571.02 46.872 571.02 45.336C571.02 43.8427 570.508 42.6693 569.484 41.816C568.503 40.92 567.031 40.3227 565.068 40.024L560.332 39.256C556.876 38.6587 554.295 37.592 552.588 36.056C550.924 34.4773 550.092 32.1947 550.092 29.208C550.092 26.0507 551.095 23.6187 553.1 21.912C555.105 20.1627 558.113 19.288 562.124 19.288H564.556C567.927 19.288 570.636 20.0773 572.684 21.656C574.732 23.2347 575.969 25.368 576.396 28.056H570.636C570.38 26.9467 569.74 26.072 568.716 25.432C567.692 24.7493 566.305 24.408 564.556 24.408H562.124C559.948 24.408 558.348 24.8133 557.324 25.624C556.343 26.4347 555.852 27.6507 555.852 29.272C555.852 30.7227 556.279 31.7893 557.132 32.472C557.985 33.1547 559.329 33.6453 561.164 33.944L565.9 34.712C569.697 35.3093 572.449 36.4187 574.156 38.04C575.905 39.6613 576.78 42.008 576.78 45.08C576.78 48.3227 575.735 50.8827 573.644 52.76C571.596 54.5947 568.481 55.512 564.3 55.512H561.612Z" fill="#7000FF"/>
<path d="M91.0674 93V75.48H93.2274V79.8V82.32H93.6834L93.2274 82.824C93.2274 81.784 93.5394 80.984 94.1634 80.424C94.7874 79.848 95.6514 79.56 96.7554 79.56C98.0834 79.56 99.1394 79.968 99.9234 80.784C100.707 81.6 101.099 82.712 101.099 84.12V93H98.9394V84.36C98.9394 83.416 98.6834 82.688 98.1714 82.176C97.6754 81.648 96.9954 81.384 96.1314 81.384C95.2354 81.384 94.5234 81.664 93.9954 82.224C93.4834 82.784 93.2274 83.576 93.2274 84.6V93H91.0674ZM110.426 93.24C108.906 93.24 107.69 92.792 106.778 91.896C105.866 90.984 105.41 89.752 105.41 88.2V79.8H107.57V88.2C107.57 89.192 107.826 89.968 108.338 90.528C108.85 91.072 109.546 91.344 110.426 91.344C111.322 91.344 112.026 91.072 112.538 90.528C113.066 89.968 113.33 89.192 113.33 88.2V79.8H115.49V88.2C115.49 89.752 115.026 90.984 114.098 91.896C113.17 92.792 111.946 93.24 110.426 93.24ZM119.225 93V79.8H121.121V81.384H121.553L121.217 81.96C121.217 81.224 121.409 80.64 121.793 80.208C122.193 79.776 122.729 79.56 123.401 79.56C124.137 79.56 124.705 79.832 125.105 80.376C125.505 80.92 125.705 81.688 125.705 82.68L125.057 81.384H126.065L125.609 81.96C125.609 81.224 125.809 80.64 126.209 80.208C126.625 79.776 127.169 79.56 127.841 79.56C128.673 79.56 129.313 79.872 129.761 80.496C130.225 81.12 130.457 81.944 130.457 82.968V93H128.465V82.944C128.465 82.4 128.345 81.976 128.105 81.672C127.881 81.368 127.545 81.216 127.097 81.216C126.665 81.216 126.321 81.368 126.065 81.672C125.825 81.96 125.705 82.376 125.705 82.92V93H123.977V82.944C123.977 82.384 123.849 81.96 123.593 81.672C123.353 81.368 123.009 81.216 122.561 81.216C122.113 81.216 121.777 81.368 121.553 81.672C121.329 81.96 121.217 82.376 121.217 82.92V93H119.225ZM138.079 93.24C136.687 93.24 135.591 92.888 134.791 92.184C133.991 91.464 133.591 90.496 133.591 89.28C133.591 88.048 133.991 87.08 134.791 86.376C135.591 85.672 136.671 85.32 138.031 85.32H142.111V84C142.111 83.184 141.863 82.56 141.367 82.128C140.887 81.68 140.199 81.456 139.303 81.456C138.519 81.456 137.863 81.624 137.335 81.96C136.807 82.28 136.503 82.72 136.423 83.28H134.263C134.407 82.144 134.943 81.24 135.871 80.568C136.799 79.896 137.959 79.56 139.351 79.56C140.871 79.56 142.071 79.952 142.951 80.736C143.831 81.52 144.271 82.584 144.271 83.928V93H142.159V90.48H141.799L142.159 90.12C142.159 91.08 141.783 91.84 141.031 92.4C140.295 92.96 139.311 93.24 138.079 93.24ZM138.607 91.536C139.631 91.536 140.471 91.28 141.127 90.768C141.783 90.256 142.111 89.6 142.111 88.8V86.928H138.079C137.359 86.928 136.791 87.128 136.375 87.528C135.959 87.928 135.751 88.472 135.751 89.16C135.751 89.896 135.999 90.48 136.495 90.912C137.007 91.328 137.711 91.536 138.607 91.536ZM148.63 93V79.8H150.79V82.32H151.246L150.79 82.824C150.79 81.784 151.102 80.984 151.726 80.424C152.35 79.848 153.214 79.56 154.318 79.56C155.646 79.56 156.702 79.968 157.486 80.784C158.27 81.6 158.662 82.712 158.662 84.12V93H156.502V84.36C156.502 83.416 156.246 82.696 155.734 82.2C155.238 81.688 154.558 81.432 153.694 81.432C152.798 81.432 152.086 81.704 151.558 82.248C151.046 82.792 150.79 83.576 150.79 84.6V93H148.63ZM162.853 93V91.032H167.533V81.768H163.453V79.8H169.693V91.032H174.133V93H162.853ZM168.373 77.424C167.845 77.424 167.429 77.288 167.125 77.016C166.821 76.744 166.669 76.376 166.669 75.912C166.669 75.432 166.821 75.056 167.125 74.784C167.429 74.496 167.845 74.352 168.373 74.352C168.901 74.352 169.317 74.496 169.621 74.784C169.925 75.056 170.077 75.432 170.077 75.912C170.077 76.376 169.925 76.744 169.621 77.016C169.317 77.288 168.901 77.424 168.373 77.424ZM183.843 93C182.707 93 181.819 92.696 181.179 92.088C180.555 91.48 180.243 90.624 180.243 89.52V81.768H176.523V79.8H180.243V76.08H182.403V79.8H187.683V81.768H182.403V89.52C182.403 90.528 182.883 91.032 183.843 91.032H187.443V93H183.843ZM193.866 97.32L195.81 92.184L190.914 79.8H193.314L196.386 87.96C196.498 88.232 196.602 88.56 196.698 88.944C196.794 89.312 196.874 89.624 196.938 89.88C197.002 89.624 197.082 89.312 197.178 88.944C197.274 88.56 197.37 88.232 197.466 87.96L200.346 79.8H202.674L196.17 97.32H193.866ZM207.344 86.04V84.12H215.024V86.04H207.344ZM223.655 93V83.088H219.815V81.12H223.655V78.84C223.655 77.8 223.983 76.984 224.639 76.392C225.295 75.784 226.199 75.48 227.351 75.48H231.215V77.448H227.351C226.855 77.448 226.471 77.568 226.199 77.808C225.943 78.032 225.815 78.376 225.815 78.84V81.12H231.215V83.088H225.815V93H223.655ZM234.806 93V91.032H239.486V81.768H235.406V79.8H241.646V91.032H246.086V93H234.806ZM240.326 77.424C239.798 77.424 239.382 77.288 239.078 77.016C238.774 76.744 238.622 76.376 238.622 75.912C238.622 75.432 238.774 75.056 239.078 74.784C239.382 74.496 239.798 74.352 240.326 74.352C240.854 74.352 241.27 74.496 241.574 74.784C241.878 75.056 242.03 75.432 242.03 75.912C242.03 76.376 241.878 76.744 241.574 77.016C241.27 77.288 240.854 77.424 240.326 77.424ZM249.82 93V79.8H251.932V82.32H252.436L251.74 83.88C251.74 82.456 252.044 81.384 252.652 80.664C253.276 79.928 254.196 79.56 255.412 79.56C256.804 79.56 257.908 80 258.724 80.88C259.556 81.744 259.972 82.92 259.972 84.408V85.2H257.812V84.6C257.812 83.56 257.556 82.768 257.044 82.224C256.548 81.664 255.836 81.384 254.908 81.384C253.996 81.384 253.276 81.664 252.748 82.224C252.236 82.784 251.98 83.576 251.98 84.6V93H249.82ZM268.339 93.192C267.443 93.192 266.659 93.056 265.987 92.784C265.331 92.496 264.803 92.096 264.403 91.584C264.019 91.072 263.787 90.464 263.707 89.76H265.867C265.963 90.224 266.219 90.592 266.635 90.864C267.067 91.136 267.635 91.272 268.339 91.272H269.347C270.195 91.272 270.827 91.104 271.243 90.768C271.659 90.416 271.867 89.952 271.867 89.376C271.867 88.816 271.675 88.376 271.291 88.056C270.923 87.72 270.371 87.496 269.635 87.384L267.859 87.096C266.563 86.872 265.595 86.472 264.955 85.896C264.331 85.304 264.019 84.448 264.019 83.328C264.019 82.144 264.395 81.232 265.147 80.592C265.899 79.936 267.027 79.608 268.531 79.608H269.443C270.707 79.608 271.723 79.904 272.491 80.496C273.259 81.088 273.723 81.888 273.883 82.896H271.723C271.627 82.48 271.387 82.152 271.003 81.912C270.619 81.656 270.099 81.528 269.443 81.528H268.531C267.715 81.528 267.115 81.68 266.731 81.984C266.363 82.288 266.179 82.744 266.179 83.352C266.179 83.896 266.339 84.296 266.659 84.552C266.979 84.808 267.483 84.992 268.171 85.104L269.947 85.392C271.371 85.616 272.403 86.032 273.043 86.64C273.699 87.248 274.027 88.128 274.027 89.28C274.027 90.496 273.635 91.456 272.851 92.16C272.083 92.848 270.915 93.192 269.347 93.192H268.339ZM284.578 93C283.442 93 282.554 92.696 281.914 92.088C281.29 91.48 280.978 90.624 280.978 89.52V81.768H277.258V79.8H280.978V76.08H283.138V79.8H288.418V81.768H283.138V89.52C283.138 90.528 283.618 91.032 284.578 91.032H288.178V93H284.578ZM310.767 93.24C309.375 93.24 308.279 92.888 307.479 92.184C306.679 91.464 306.279 90.496 306.279 89.28C306.279 88.048 306.679 87.08 307.479 86.376C308.279 85.672 309.359 85.32 310.719 85.32H314.799V84C314.799 83.184 314.551 82.56 314.055 82.128C313.575 81.68 312.887 81.456 311.991 81.456C311.207 81.456 310.551 81.624 310.023 81.96C309.495 82.28 309.191 82.72 309.111 83.28H306.951C307.095 82.144 307.631 81.24 308.559 80.568C309.487 79.896 310.647 79.56 312.039 79.56C313.559 79.56 314.759 79.952 315.639 80.736C316.519 81.52 316.959 82.584 316.959 83.928V93H314.847V90.48H314.487L314.847 90.12C314.847 91.08 314.471 91.84 313.719 92.4C312.983 92.96 311.999 93.24 310.767 93.24ZM311.295 91.536C312.319 91.536 313.159 91.28 313.815 90.768C314.471 90.256 314.799 89.6 314.799 88.8V86.928H310.767C310.047 86.928 309.479 87.128 309.063 87.528C308.647 87.928 308.439 88.472 308.439 89.16C308.439 89.896 308.687 90.48 309.183 90.912C309.695 91.328 310.399 91.536 311.295 91.536ZM326.405 93.24C325.349 93.24 324.421 93.04 323.621 92.64C322.837 92.24 322.229 91.664 321.797 90.912C321.365 90.144 321.149 89.24 321.149 88.2V84.6C321.149 83.544 321.365 82.64 321.797 81.888C322.229 81.136 322.837 80.56 323.621 80.16C324.421 79.76 325.349 79.56 326.405 79.56C327.925 79.56 329.149 79.968 330.077 80.784C331.005 81.6 331.493 82.712 331.541 84.12H329.381C329.333 83.272 329.045 82.624 328.517 82.176C328.005 81.712 327.301 81.48 326.405 81.48C325.461 81.48 324.709 81.752 324.149 82.296C323.589 82.824 323.309 83.584 323.309 84.576V88.2C323.309 89.192 323.589 89.96 324.149 90.504C324.709 91.048 325.461 91.32 326.405 91.32C327.301 91.32 328.005 91.088 328.517 90.624C329.045 90.16 329.333 89.512 329.381 88.68H331.541C331.493 90.088 331.005 91.2 330.077 92.016C329.149 92.832 327.925 93.24 326.405 93.24ZM342.14 93C341.004 93 340.116 92.696 339.476 92.088C338.852 91.48 338.54 90.624 338.54 89.52V81.768H334.82V79.8H338.54V76.08H340.7V79.8H345.98V81.768H340.7V89.52C340.7 90.528 341.18 91.032 342.14 91.032H345.74V93H342.14ZM349.931 93V91.032H354.611V81.768H350.531V79.8H356.771V91.032H361.211V93H349.931ZM355.451 77.424C354.923 77.424 354.507 77.288 354.203 77.016C353.899 76.744 353.747 76.376 353.747 75.912C353.747 75.432 353.899 75.056 354.203 74.784C354.507 74.496 354.923 74.352 355.451 74.352C355.979 74.352 356.395 74.496 356.699 74.784C357.003 75.056 357.155 75.432 357.155 75.912C357.155 76.376 357.003 76.744 356.699 77.016C356.395 77.288 355.979 77.424 355.451 77.424ZM368.017 93L363.601 79.8H365.809L368.737 88.68C368.913 89.208 369.073 89.72 369.217 90.216C369.361 90.696 369.465 91.072 369.529 91.344C369.609 91.072 369.721 90.696 369.865 90.216C370.009 89.72 370.161 89.208 370.321 88.68L373.177 79.8H375.361L370.945 93H368.017ZM378.712 93V91.032H383.392V81.768H379.312V79.8H385.552V91.032H389.992V93H378.712ZM384.232 77.424C383.704 77.424 383.288 77.288 382.984 77.016C382.68 76.744 382.528 76.376 382.528 75.912C382.528 75.432 382.68 75.056 382.984 74.784C383.288 74.496 383.704 74.352 384.232 74.352C384.76 74.352 385.176 74.496 385.48 74.784C385.784 75.056 385.936 75.432 385.936 75.912C385.936 76.376 385.784 76.744 385.48 77.016C385.176 77.288 384.76 77.424 384.232 77.424ZM399.703 93C398.567 93 397.679 92.696 397.039 92.088C396.415 91.48 396.103 90.624 396.103 89.52V81.768H392.383V79.8H396.103V76.08H398.263V79.8H403.543V81.768H398.263V89.52C398.263 90.528 398.743 91.032 399.703 91.032H403.303V93H399.703ZM409.725 97.32L411.669 92.184L406.773 79.8H409.173L412.245 87.96C412.357 88.232 412.461 88.56 412.557 88.944C412.653 89.312 412.733 89.624 412.797 89.88C412.861 89.624 412.941 89.312 413.037 88.944C413.133 88.56 413.229 88.232 413.325 87.96L416.205 79.8H418.533L412.029 97.32H409.725ZM440.282 93.24C438.89 93.24 437.794 92.888 436.994 92.184C436.194 91.464 435.794 90.496 435.794 89.28C435.794 88.048 436.194 87.08 436.994 86.376C437.794 85.672 438.874 85.32 440.234 85.32H444.314V84C444.314 83.184 444.066 82.56 443.57 82.128C443.09 81.68 442.402 81.456 441.506 81.456C440.722 81.456 440.066 81.624 439.538 81.96C439.01 82.28 438.706 82.72 438.626 83.28H436.466C436.61 82.144 437.146 81.24 438.074 80.568C439.002 79.896 440.162 79.56 441.554 79.56C443.074 79.56 444.274 79.952 445.154 80.736C446.034 81.52 446.474 82.584 446.474 83.928V93H444.362V90.48H444.002L444.362 90.12C444.362 91.08 443.986 91.84 443.234 92.4C442.498 92.96 441.514 93.24 440.282 93.24ZM440.81 91.536C441.834 91.536 442.674 91.28 443.33 90.768C443.986 90.256 444.314 89.6 444.314 88.8V86.928H440.282C439.562 86.928 438.994 87.128 438.578 87.528C438.162 87.928 437.954 88.472 437.954 89.16C437.954 89.896 438.202 90.48 438.698 90.912C439.21 91.328 439.914 91.536 440.81 91.536ZM452.489 97.32V95.352H456.689C457.361 95.352 457.849 95.2 458.153 94.896C458.473 94.592 458.633 94.12 458.633 93.48V91.8L458.681 89.4H458.249L458.657 89.04C458.657 90 458.337 90.76 457.697 91.32C457.057 91.88 456.201 92.16 455.129 92.16C453.769 92.16 452.697 91.72 451.913 90.84C451.129 89.944 450.737 88.744 450.737 87.24V84.456C450.737 82.952 451.129 81.76 451.913 80.88C452.697 80 453.769 79.56 455.129 79.56C456.201 79.56 457.057 79.84 457.697 80.4C458.337 80.96 458.657 81.72 458.657 82.68L458.249 82.32H458.657V79.8H460.793V93.48C460.793 94.664 460.425 95.6 459.689 96.288C458.969 96.976 457.961 97.32 456.665 97.32H452.489ZM455.777 90.288C456.673 90.288 457.377 90.008 457.889 89.448C458.401 88.888 458.657 88.112 458.657 87.12V84.6C458.657 83.608 458.401 82.832 457.889 82.272C457.377 81.712 456.673 81.432 455.777 81.432C454.865 81.432 454.153 81.704 453.641 82.248C453.145 82.792 452.897 83.576 452.897 84.6V87.12C452.897 88.144 453.145 88.928 453.641 89.472C454.153 90.016 454.865 90.288 455.777 90.288ZM466.88 97.32V95.352H471.08C471.752 95.352 472.24 95.2 472.544 94.896C472.864 94.592 473.024 94.12 473.024 93.48V91.8L473.072 89.4H472.64L473.048 89.04C473.048 90 472.728 90.76 472.088 91.32C471.448 91.88 470.592 92.16 469.52 92.16C468.16 92.16 467.088 91.72 466.304 90.84C465.52 89.944 465.128 88.744 465.128 87.24V84.456C465.128 82.952 465.52 81.76 466.304 80.88C467.088 80 468.16 79.56 469.52 79.56C470.592 79.56 471.448 79.84 472.088 80.4C472.728 80.96 473.048 81.72 473.048 82.68L472.64 82.32H473.048V79.8H475.184V93.48C475.184 94.664 474.816 95.6 474.08 96.288C473.36 96.976 472.352 97.32 471.056 97.32H466.88ZM470.168 90.288C471.064 90.288 471.768 90.008 472.28 89.448C472.792 88.888 473.048 88.112 473.048 87.12V84.6C473.048 83.608 472.792 82.832 472.28 82.272C471.768 81.712 471.064 81.432 470.168 81.432C469.256 81.432 468.544 81.704 468.032 82.248C467.536 82.792 467.288 83.576 467.288 84.6V87.12C467.288 88.144 467.536 88.928 468.032 89.472C468.544 90.016 469.256 90.288 470.168 90.288ZM480.07 93V79.8H482.182V82.32H482.686L481.99 83.88C481.99 82.456 482.294 81.384 482.902 80.664C483.526 79.928 484.446 79.56 485.662 79.56C487.054 79.56 488.158 80 488.974 80.88C489.806 81.744 490.222 82.92 490.222 84.408V85.2H488.062V84.6C488.062 83.56 487.806 82.768 487.294 82.224C486.798 81.664 486.086 81.384 485.158 81.384C484.246 81.384 483.526 81.664 482.998 82.224C482.486 82.784 482.23 83.576 482.23 84.6V93H480.07ZM498.997 93.24C497.957 93.24 497.045 93.032 496.261 92.616C495.493 92.2 494.893 91.616 494.461 90.864C494.045 90.096 493.837 89.208 493.837 88.2V84.6C493.837 83.576 494.045 82.688 494.461 81.936C494.893 81.184 495.493 80.6 496.261 80.184C497.045 79.768 497.957 79.56 498.997 79.56C500.037 79.56 500.941 79.768 501.709 80.184C502.493 80.6 503.093 81.184 503.509 81.936C503.941 82.688 504.157 83.576 504.157 84.6V86.928H495.949V88.2C495.949 89.24 496.213 90.04 496.741 90.6C497.269 91.144 498.021 91.416 498.997 91.416C499.829 91.416 500.501 91.272 501.013 90.984C501.525 90.68 501.837 90.232 501.949 89.64H504.109C503.965 90.744 503.421 91.624 502.477 92.28C501.549 92.92 500.389 93.24 498.997 93.24ZM502.045 85.488V84.6C502.045 83.56 501.781 82.76 501.253 82.2C500.741 81.64 499.989 81.36 498.997 81.36C498.021 81.36 497.269 81.64 496.741 82.2C496.213 82.76 495.949 83.56 495.949 84.6V85.296H502.213L502.045 85.488ZM510.052 97.32V95.352H514.252C514.924 95.352 515.412 95.2 515.716 94.896C516.036 94.592 516.196 94.12 516.196 93.48V91.8L516.244 89.4H515.812L516.22 89.04C516.22 90 515.9 90.76 515.26 91.32C514.62 91.88 513.764 92.16 512.692 92.16C511.332 92.16 510.26 91.72 509.476 90.84C508.692 89.944 508.3 88.744 508.3 87.24V84.456C508.3 82.952 508.692 81.76 509.476 80.88C510.26 80 511.332 79.56 512.692 79.56C513.764 79.56 514.62 79.84 515.26 80.4C515.9 80.96 516.22 81.72 516.22 82.68L515.812 82.32H516.22V79.8H518.356V93.48C518.356 94.664 517.988 95.6 517.252 96.288C516.532 96.976 515.524 97.32 514.228 97.32H510.052ZM513.34 90.288C514.236 90.288 514.94 90.008 515.452 89.448C515.964 88.888 516.22 88.112 516.22 87.12V84.6C516.22 83.608 515.964 82.832 515.452 82.272C514.94 81.712 514.236 81.432 513.34 81.432C512.428 81.432 511.716 81.704 511.204 82.248C510.708 82.792 510.46 83.576 510.46 84.6V87.12C510.46 88.144 510.708 88.928 511.204 89.472C511.716 90.016 512.428 90.288 513.34 90.288ZM526.626 93.24C525.234 93.24 524.138 92.888 523.338 92.184C522.538 91.464 522.138 90.496 522.138 89.28C522.138 88.048 522.538 87.08 523.338 86.376C524.138 85.672 525.218 85.32 526.578 85.32H530.658V84C530.658 83.184 530.41 82.56 529.914 82.128C529.434 81.68 528.746 81.456 527.85 81.456C527.066 81.456 526.41 81.624 525.882 81.96C525.354 82.28 525.05 82.72 524.97 83.28H522.81C522.954 82.144 523.49 81.24 524.418 80.568C525.346 79.896 526.506 79.56 527.898 79.56C529.418 79.56 530.618 79.952 531.498 80.736C532.378 81.52 532.818 82.584 532.818 83.928V93H530.706V90.48H530.346L530.706 90.12C530.706 91.08 530.33 91.84 529.578 92.4C528.842 92.96 527.858 93.24 526.626 93.24ZM527.154 91.536C528.178 91.536 529.018 91.28 529.674 90.768C530.33 90.256 530.658 89.6 530.658 88.8V86.928H526.626C525.906 86.928 525.338 87.128 524.922 87.528C524.506 87.928 524.298 88.472 524.298 89.16C524.298 89.896 524.546 90.48 525.042 90.912C525.554 91.328 526.258 91.536 527.154 91.536ZM543.609 93C542.473 93 541.585 92.696 540.945 92.088C540.321 91.48 540.009 90.624 540.009 89.52V81.768H536.289V79.8H540.009V76.08H542.169V79.8H547.449V81.768H542.169V89.52C542.169 90.528 542.649 91.032 543.609 91.032H547.209V93H543.609ZM556.559 93.192C555.503 93.192 554.591 92.992 553.823 92.592C553.055 92.192 552.455 91.616 552.023 90.864C551.607 90.096 551.399 89.192 551.399 88.152V84.648C551.399 83.592 551.607 82.688 552.023 81.936C552.455 81.184 553.055 80.608 553.823 80.208C554.591 79.808 555.503 79.608 556.559 79.608C557.615 79.608 558.527 79.808 559.295 80.208C560.063 80.608 560.655 81.184 561.071 81.936C561.503 82.688 561.719 83.584 561.719 84.624V88.152C561.719 89.192 561.503 90.096 561.071 90.864C560.655 91.616 560.063 92.192 559.295 92.592C558.527 92.992 557.615 93.192 556.559 93.192ZM556.559 91.272C557.503 91.272 558.239 91.008 558.767 90.48C559.295 89.952 559.559 89.176 559.559 88.152V84.648C559.559 83.624 559.295 82.848 558.767 82.32C558.239 81.792 557.503 81.528 556.559 81.528C555.631 81.528 554.895 81.792 554.351 82.32C553.823 82.848 553.559 83.624 553.559 84.648V88.152C553.559 89.176 553.823 89.952 554.351 90.48C554.895 91.008 555.631 91.272 556.559 91.272ZM566.414 93V79.8H568.526V82.32H569.03L568.334 83.88C568.334 82.456 568.638 81.384 569.246 80.664C569.87 79.928 570.79 79.56 572.006 79.56C573.398 79.56 574.502 80 575.318 80.88C576.15 81.744 576.566 82.92 576.566 84.408V85.2H574.406V84.6C574.406 83.56 574.15 82.768 573.638 82.224C573.142 81.664 572.43 81.384 571.502 81.384C570.59 81.384 569.87 81.664 569.342 82.224C568.83 82.784 568.574 83.576 568.574 84.6V93H566.414Z" fill="white"/>
</svg>
